<svg width="28" height="28" viewBox="0 0 28 28" fill="none" xmlns="http://www.w3.org/2000/svg">
<g filter="url(#filter0_d_6039_204474)">
<mask id="path-1-outside-1_6039_204474" maskUnits="userSpaceOnUse" x="1.125" y="1" width="26" height="26" fill="black">
<rect fill="white" x="1.125" y="1" width="26" height="26"/>
<path fill-rule="evenodd" clip-rule="evenodd" d="M18.2281 2.72676C12.0021 0.460663 5.11785 3.67083 2.85176 9.89687C0.585663 16.1229 3.79583 23.0072 10.0219 25.2732C16.2479 27.5393 23.1321 24.3292 25.3982 18.1031C25.944 16.6037 26.182 15.0374 26.1133 13.4765C26.0439 11.9022 25.6631 10.3568 24.9977 8.92996C24.3324 7.50307 23.3933 6.21798 22.232 5.15295C21.9749 4.91726 21.5755 4.93454 21.3398 5.19156C21.1042 5.44857 21.1214 5.84798 21.3784 6.08366C22.4173 7.0363 23.2576 8.18635 23.8532 9.46365C24.4488 10.7409 24.7897 12.1239 24.8517 13.5321C24.9132 14.9279 24.7003 16.3285 24.2116 17.6712C22.184 23.2419 16.0245 26.1141 10.4538 24.0866C4.88312 22.059 2.01086 15.8995 4.03841 10.3288C6.06597 4.75812 12.2255 1.88586 17.7962 3.91341C18.1239 4.03268 18.4862 3.86373 18.6055 3.53604C18.7248 3.20835 18.5558 2.84602 18.2281 2.72676ZM18.2776 17.7848C17.9846 17.5958 17.5938 17.6801 17.4048 17.9732C16.8176 18.8835 15.7513 19.3496 14.125 19.3496C12.4917 19.3496 11.3854 18.8779 10.7348 17.9524C10.5343 17.6671 10.1405 17.5983 9.85516 17.7989C9.56987 17.9994 9.50115 18.3932 9.70167 18.6785C10.612 19.9737 12.1102 20.6124 14.125 20.6124C16.1468 20.6124 17.6207 19.9681 18.466 18.6577C18.655 18.3646 18.5707 17.9738 18.2776 17.7848ZM9.91564 11.8953C10.7293 11.8953 11.3889 12.5549 11.3889 13.3686C11.3889 14.1823 10.7293 14.8419 9.91564 14.8419C9.10197 14.8419 8.44236 14.1823 8.44236 13.3686C8.44236 12.5549 9.10197 11.8953 9.91564 11.8953ZM19.8077 13.3686C19.8077 12.5549 19.1481 11.8953 18.3344 11.8953C17.5207 11.8953 16.8611 12.5549 16.8611 13.3686C16.8611 14.1823 17.5207 14.8419 18.3344 14.8419C19.1481 14.8419 19.8077 14.1823 19.8077 13.3686Z"/>
</mask>
<path fill-rule="evenodd" clip-rule="evenodd" d="M18.2281 2.72676C12.0021 0.460663 5.11785 3.67083 2.85176 9.89687C0.585663 16.1229 3.79583 23.0072 10.0219 25.2732C16.2479 27.5393 23.1321 24.3292 25.3982 18.1031C25.944 16.6037 26.182 15.0374 26.1133 13.4765C26.0439 11.9022 25.6631 10.3568 24.9977 8.92996C24.3324 7.50307 23.3933 6.21798 22.232 5.15295C21.9749 4.91726 21.5755 4.93454 21.3398 5.19156C21.1042 5.44857 21.1214 5.84798 21.3784 6.08366C22.4173 7.0363 23.2576 8.18635 23.8532 9.46365C24.4488 10.7409 24.7897 12.1239 24.8517 13.5321C24.9132 14.9279 24.7003 16.3285 24.2116 17.6712C22.184 23.2419 16.0245 26.1141 10.4538 24.0866C4.88312 22.059 2.01086 15.8995 4.03841 10.3288C6.06597 4.75812 12.2255 1.88586 17.7962 3.91341C18.1239 4.03268 18.4862 3.86373 18.6055 3.53604C18.7248 3.20835 18.5558 2.84602 18.2281 2.72676ZM18.2776 17.7848C17.9846 17.5958 17.5938 17.6801 17.4048 17.9732C16.8176 18.8835 15.7513 19.3496 14.125 19.3496C12.4917 19.3496 11.3854 18.8779 10.7348 17.9524C10.5343 17.6671 10.1405 17.5983 9.85516 17.7989C9.56987 17.9994 9.50115 18.3932 9.70167 18.6785C10.612 19.9737 12.1102 20.6124 14.125 20.6124C16.1468 20.6124 17.6207 19.9681 18.466 18.6577C18.655 18.3646 18.5707 17.9738 18.2776 17.7848ZM9.91564 11.8953C10.7293 11.8953 11.3889 12.5549 11.3889 13.3686C11.3889 14.1823 10.7293 14.8419 9.91564 14.8419C9.10197 14.8419 8.44236 14.1823 8.44236 13.3686C8.44236 12.5549 9.10197 11.8953 9.91564 11.8953ZM19.8077 13.3686C19.8077 12.5549 19.1481 11.8953 18.3344 11.8953C17.5207 11.8953 16.8611 12.5549 16.8611 13.3686C16.8611 14.1823 17.5207 14.8419 18.3344 14.8419C19.1481 14.8419 19.8077 14.1823 19.8077 13.3686Z" fill="white"/>
<path d="M2.85176 9.89687L2.66382 9.82847L2.85176 9.89687ZM18.2281 2.72676L18.1597 2.9147L18.2281 2.72676ZM10.0219 25.2732L9.95347 25.4612L10.0219 25.2732ZM25.3982 18.1031L25.5862 18.1715L25.3982 18.1031ZM26.1133 13.4765L25.9135 13.4853L26.1133 13.4765ZM24.9977 8.92996L24.8165 9.01448V9.01449L24.9977 8.92996ZM22.232 5.15295L22.3671 5.00554V5.00554L22.232 5.15295ZM21.3398 5.19156L21.4872 5.32673V5.32673L21.3398 5.19156ZM21.3784 6.08366L21.5136 5.93626L21.3784 6.08366ZM23.8532 9.46365L24.0345 9.37913V9.37913L23.8532 9.46365ZM24.8517 13.5321L25.0515 13.5233L24.8517 13.5321ZM24.2116 17.6712L24.0236 17.6028L24.2116 17.6712ZM10.4538 24.0866L10.5222 23.8986L10.4538 24.0866ZM4.03841 10.3288L3.85048 10.2604L4.03841 10.3288ZM17.7962 3.91341L17.7278 4.10135L17.7962 3.91341ZM18.6055 3.53604L18.4176 3.46764L18.6055 3.53604ZM17.4048 17.9732L17.2367 17.8648L17.4048 17.9732ZM18.2776 17.7848L18.1692 17.9529L18.2776 17.7848ZM10.7348 17.9524L10.5712 18.0674V18.0674L10.7348 17.9524ZM9.85516 17.7989L9.74016 17.6352L9.85516 17.7989ZM9.70167 18.6785L9.53805 18.7935H9.53805L9.70167 18.6785ZM18.466 18.6577L18.6341 18.7661V18.7661L18.466 18.6577ZM3.0397 9.96528C5.26801 3.84303 12.0375 0.68638 18.1597 2.9147L18.2965 2.53882C11.9667 0.234946 4.96769 3.49863 2.66382 9.82847L3.0397 9.96528ZM10.0903 25.0853C3.96803 22.857 0.81138 16.0875 3.0397 9.96528L2.66382 9.82847C0.359946 16.1583 3.62363 23.1573 9.95347 25.4612L10.0903 25.0853ZM25.2103 18.0347C22.982 24.157 16.2125 27.3136 10.0903 25.0853L9.95347 25.4612C16.2833 27.7651 23.2823 24.5014 25.5862 18.1715L25.2103 18.0347ZM25.9135 13.4853C25.9811 15.0199 25.7471 16.56 25.2103 18.0347L25.5862 18.1715C26.1409 16.6475 26.383 15.055 26.3131 13.4677L25.9135 13.4853ZM24.8165 9.01449C25.4708 10.4178 25.8453 11.9374 25.9135 13.4853L26.3131 13.4677C26.2426 11.867 25.8554 10.2959 25.179 8.84544L24.8165 9.01449ZM22.0968 5.30035C23.2387 6.34752 24.1621 7.6112 24.8165 9.01448L25.179 8.84544C24.5026 7.39494 23.548 6.08844 22.3671 5.00554L22.0968 5.30035ZM21.4872 5.32673C21.6483 5.15113 21.9212 5.13932 22.0968 5.30035L22.3671 5.00554C22.0287 4.6952 21.5028 4.71796 21.1924 5.05638L21.4872 5.32673ZM21.5136 5.93626C21.338 5.77523 21.3262 5.50233 21.4872 5.32673L21.1924 5.05638C20.8821 5.3948 20.9049 5.92073 21.2433 6.23107L21.5136 5.93626ZM24.0345 9.37913C23.4279 8.07823 22.5719 6.90677 21.5136 5.93626L21.2433 6.23107C22.2626 7.16584 23.0874 8.29447 23.672 9.54817L24.0345 9.37913ZM25.0515 13.5233C24.9883 12.0887 24.6411 10.68 24.0345 9.37913L23.672 9.54817C24.2566 10.8019 24.591 12.1591 24.6519 13.5409L25.0515 13.5233ZM24.3995 17.7396C24.8972 16.3722 25.1141 14.9454 25.0515 13.5233L24.6519 13.5409C24.7122 14.9104 24.5034 16.2847 24.0236 17.6028L24.3995 17.7396ZM10.3854 24.2745C16.0598 26.3399 22.3342 23.4141 24.3995 17.7396L24.0236 17.6028C22.0339 23.0697 15.9891 25.8884 10.5222 23.8986L10.3854 24.2745ZM3.85048 10.2604C1.78514 15.9348 4.71092 22.2092 10.3854 24.2745L10.5222 23.8986C5.05532 21.9089 2.23657 15.8641 4.22635 10.3972L3.85048 10.2604ZM17.8646 3.72548C12.1902 1.66014 5.91581 4.58592 3.85048 10.2604L4.22635 10.3972C6.21613 4.93032 12.2609 2.11157 17.7278 4.10135L17.8646 3.72548ZM18.4176 3.46764C18.3361 3.69153 18.0885 3.80696 17.8646 3.72548L17.7278 4.10135C18.1593 4.2584 18.6364 4.03593 18.7934 3.60444L18.4176 3.46764ZM18.1597 2.9147C18.3836 2.99619 18.4991 3.24375 18.4176 3.46764L18.7934 3.60444C18.9505 3.17296 18.728 2.69586 18.2965 2.53882L18.1597 2.9147ZM17.5728 18.0816C17.702 17.8814 17.969 17.8238 18.1692 17.9529L18.386 17.6168C18.0002 17.3679 17.4856 17.4789 17.2367 17.8648L17.5728 18.0816ZM14.125 19.5496C15.7868 19.5496 16.9342 19.0717 17.5728 18.0816L17.2367 17.8648C16.7011 18.6952 15.7157 19.1496 14.125 19.1496V19.5496ZM10.5712 18.0674C11.2727 19.0654 12.4542 19.5496 14.125 19.5496V19.1496C12.5292 19.1496 11.498 18.6904 10.8984 17.8373L10.5712 18.0674ZM9.97017 17.9625C10.1651 17.8255 10.4342 17.8724 10.5712 18.0674L10.8984 17.8373C10.6344 17.4617 10.1158 17.3712 9.74016 17.6352L9.97017 17.9625ZM9.8653 18.5635C9.72829 18.3686 9.77524 18.0995 9.97017 17.9625L9.74016 17.6352C9.36449 17.8993 9.27401 18.4179 9.53805 18.7935L9.8653 18.5635ZM14.125 20.4124C12.1531 20.4124 10.727 19.7895 9.8653 18.5635L9.53805 18.7935C10.497 20.1578 12.0672 20.8124 14.125 20.8124V20.4124ZM18.2979 18.5493C17.5015 19.784 16.1045 20.4124 14.125 20.4124V20.8124C16.1892 20.8124 17.74 20.1522 18.6341 18.7661L18.2979 18.5493ZM18.1692 17.9529C18.3694 18.082 18.4271 18.349 18.2979 18.5493L18.6341 18.7661C18.8829 18.3802 18.7719 17.8656 18.386 17.6168L18.1692 17.9529ZM11.5889 13.3686C11.5889 12.4445 10.8398 11.6953 9.91564 11.6953V12.0953C10.6189 12.0953 11.1889 12.6654 11.1889 13.3686H11.5889ZM9.91564 15.0419C10.8398 15.0419 11.5889 14.2927 11.5889 13.3686H11.1889C11.1889 14.0718 10.6189 14.6419 9.91564 14.6419V15.0419ZM8.24236 13.3686C8.24236 14.2927 8.99151 15.0419 9.91564 15.0419V14.6419C9.21243 14.6419 8.64236 14.0718 8.64236 13.3686H8.24236ZM9.91564 11.6953C8.99151 11.6953 8.24236 12.4445 8.24236 13.3686H8.64236C8.64236 12.6654 9.21243 12.0953 9.91564 12.0953V11.6953ZM18.3344 12.0953C19.0376 12.0953 19.6077 12.6654 19.6077 13.3686H20.0077C20.0077 12.4445 19.2585 11.6953 18.3344 11.6953V12.0953ZM17.0611 13.3686C17.0611 12.6654 17.6312 12.0953 18.3344 12.0953V11.6953C17.4103 11.6953 16.6611 12.4445 16.6611 13.3686H17.0611ZM18.3344 14.6419C17.6312 14.6419 17.0611 14.0718 17.0611 13.3686H16.6611C16.6611 14.2927 17.4103 15.0419 18.3344 15.0419V14.6419ZM19.6077 13.3686C19.6077 14.0718 19.0376 14.6419 18.3344 14.6419V15.0419C19.2585 15.0419 20.0077 14.2927 20.0077 13.3686H19.6077Z" fill="black" fill-opacity="0.2" mask="url(#path-1-outside-1_6039_204474)"/>
</g>
<defs>
<filter id="filter0_d_6039_204474" x="0.924805" y="0.800781" width="26.4004" height="26.3984" filterUnits="userSpaceOnUse" color-interpolation-filters="sRGB">
<feFlood flood-opacity="0" result="BackgroundImageFix"/>
<feColorMatrix in="SourceAlpha" type="matrix" values="0 0 0 0 0 0 0 0 0 0 0 0 0 0 0 0 0 0 127 0" result="hardAlpha"/>
<feOffset/>
<feGaussianBlur stdDeviation="0.5"/>
<feColorMatrix type="matrix" values="0 0 0 0 0.14902 0 0 0 0 0.14902 0 0 0 0 0.14902 0 0 0 0.4 0"/>
<feBlend mode="normal" in2="BackgroundImageFix" result="effect1_dropShadow_6039_204474"/>
<feBlend mode="normal" in="SourceGraphic" in2="effect1_dropShadow_6039_204474" result="shape"/>
</filter>
</defs>
</svg>
