<svg width="32" height="32" viewBox="0 0 32 32" fill="none" xmlns="http://www.w3.org/2000/svg">
<g filter="url(#filter0_d_13350_18050)">
<path d="M20.8203 6H11.1803C10.1573 6.00238 9.17688 6.40982 8.45351 7.13319C7.73013 7.85657 7.32269 8.83699 7.32031 9.86L7.32031 23.95C7.32031 25.75 8.61031 26.51 10.1903 25.64L15.0703 22.93C15.3612 22.7869 15.6811 22.7124 16.0053 22.7124C16.3295 22.7124 16.6494 22.7869 16.9403 22.93L21.8203 25.64C23.4003 26.52 24.6903 25.76 24.6903 23.95V9.86C24.684 8.83648 24.2739 7.85683 23.5492 7.13402C22.8245 6.41121 21.8438 6.00367 20.8203 6ZM19.0103 13.75C18.0452 14.0993 17.0267 14.2787 16.0003 14.28C14.9739 14.2787 13.9555 14.0993 12.9903 13.75C12.8977 13.7166 12.8125 13.6652 12.7398 13.5989C12.667 13.5325 12.608 13.4525 12.5662 13.3633C12.5244 13.2742 12.5006 13.1776 12.4962 13.0792C12.4917 12.9809 12.5067 12.8826 12.5403 12.79C12.611 12.603 12.7521 12.4511 12.9335 12.367C13.1148 12.2829 13.3219 12.2732 13.5103 12.34C15.1231 12.92 16.8875 12.92 18.5003 12.34C18.6857 12.2788 18.8877 12.2923 19.0633 12.3777C19.2389 12.463 19.3742 12.6135 19.4406 12.7971C19.5071 12.9807 19.4993 13.183 19.4189 13.3609C19.3385 13.5388 19.192 13.6784 19.0103 13.75Z" fill="#27272A"/>
</g>
<defs>
<filter id="filter0_d_13350_18050" x="0" y="0" width="32" height="32" filterUnits="userSpaceOnUse" color-interpolation-filters="sRGB">
<feFlood flood-opacity="0" result="BackgroundImageFix"/>
<feColorMatrix in="SourceAlpha" type="matrix" values="0 0 0 0 0 0 0 0 0 0 0 0 0 0 0 0 0 0 127 0" result="hardAlpha"/>
<feOffset/>
<feGaussianBlur stdDeviation="2"/>
<feComposite in2="hardAlpha" operator="out"/>
<feColorMatrix type="matrix" values="0 0 0 0 1 0 0 0 0 1 0 0 0 0 1 0 0 0 0.5 0"/>
<feBlend mode="normal" in2="BackgroundImageFix" result="effect1_dropShadow_13350_18050"/>
<feBlend mode="normal" in="SourceGraphic" in2="effect1_dropShadow_13350_18050" result="shape"/>
</filter>
</defs>
</svg>
