<svg width="30" height="28" viewBox="0 0 30 28" fill="none" xmlns="http://www.w3.org/2000/svg">
<g filter="url(#filter0_d_13447_218299)">
<path d="M15.62 22.8101C15.2154 22.9301 14.7847 22.9301 14.38 22.8101C11.48 21.8201 5.00002 17.6901 5.00002 10.6901C4.99792 9.95794 5.14008 9.23254 5.41838 8.55534C5.69668 7.87813 6.10568 7.26239 6.622 6.74329C7.13832 6.22418 7.75185 5.81188 8.42755 5.52994C9.10324 5.248 9.82787 5.10193 10.56 5.1001C11.4238 5.09967 12.2756 5.30216 13.0468 5.69124C13.818 6.08031 14.4871 6.6451 15 7.3401C15.6977 6.40075 16.6745 5.70607 17.7908 5.3554C18.9071 5.00474 20.1057 5.01606 21.2152 5.38773C22.3247 5.75941 23.2882 6.47241 23.968 7.42477C24.6478 8.37712 25.009 9.52005 25 10.6901C25 17.6901 18.52 21.8201 15.62 22.8101Z" fill="#EF4444" stroke="#EF4444" stroke-width="1.5" stroke-linecap="round" stroke-linejoin="round"/>
</g>
<defs>
<filter id="filter0_d_13447_218299" x="-1" y="-2" width="32" height="32" filterUnits="userSpaceOnUse" color-interpolation-filters="sRGB">
<feFlood flood-opacity="0" result="BackgroundImageFix"/>
<feColorMatrix in="SourceAlpha" type="matrix" values="0 0 0 0 0 0 0 0 0 0 0 0 0 0 0 0 0 0 127 0" result="hardAlpha"/>
<feOffset/>
<feGaussianBlur stdDeviation="2"/>
<feComposite in2="hardAlpha" operator="out"/>
<feColorMatrix type="matrix" values="0 0 0 0 1 0 0 0 0 1 0 0 0 0 1 0 0 0 0.5 0"/>
<feBlend mode="normal" in2="BackgroundImageFix" result="effect1_dropShadow_13447_218299"/>
<feBlend mode="normal" in="SourceGraphic" in2="effect1_dropShadow_13447_218299" result="shape"/>
</filter>
</defs>
</svg>
