<svg width="225" height="200" viewBox="0 0 225 200" fill="none" xmlns="http://www.w3.org/2000/svg">
<g id="undraw_social_bio_re_0t9u 1" clip-path="url(#clip0_7515_93755)">
<path id="Vector" d="M32.7063 160.542L25.866 156.208C25.5518 152.402 25.4536 148.582 25.572 144.766L29.1203 145.668L25.618 143.449C25.8114 138.731 26.2398 135.619 26.2398 135.619C26.2398 135.619 40.07 144.555 48.8906 156.667L47.3865 166.91L50.9735 159.747C51.891 161.208 52.7153 162.724 53.4413 164.288C60.7087 180.08 61.4148 195.243 55.0186 198.155C48.6223 201.068 37.5457 190.627 30.2784 174.835C28.0254 169.939 26.7819 164.31 26.1375 158.873L32.7063 160.542Z" fill="#F0F0F0"/>
<path id="Vector_2" d="M18.6591 175.785L10.551 175.591C8.30453 172.495 6.23541 169.276 4.35349 165.948L7.85959 164.896L3.70826 164.796C1.42229 160.659 0.171875 157.774 0.171875 157.774C0.171875 157.774 16.6547 158.313 30.4996 164.146L34.5352 173.688L33.8833 165.712C35.4279 166.491 36.9218 167.365 38.356 168.331C52.7837 178.113 61.2678 190.73 57.3057 196.512C53.3437 202.293 38.4358 199.05 24.0081 189.268C19.5353 186.236 15.5456 182.056 12.1684 177.733L18.6591 175.785Z" fill="#F0F0F0"/>
<path id="Vector_3" d="M134.215 56.5917L127.861 55.8481L125.618 75.1799L119.893 101.876C119.097 102.261 118.447 102.892 118.041 103.675C117.634 104.457 117.493 105.349 117.637 106.218C117.782 107.087 118.204 107.887 118.842 108.497C119.48 109.108 120.3 109.497 121.178 109.608C122.057 109.718 122.947 109.543 123.718 109.109C124.488 108.675 125.097 108.005 125.454 107.199C125.811 106.393 125.896 105.494 125.698 104.635C125.5 103.777 125.028 103.005 124.353 102.435L130.103 86.7047L134.215 56.5917Z" fill="#FFB6B6"/>
<path id="Vector_4" d="M143.444 194.41H138.209L135.719 174.325L143.445 174.326L143.444 194.41Z" fill="#FFB6B6"/>
<path id="Vector_5" d="M144.778 199.457L127.898 199.457V199.244C127.899 197.511 128.591 195.849 129.823 194.624C131.055 193.398 132.726 192.71 134.468 192.709H134.469L144.778 192.71L144.778 199.457Z" fill="#2F2E41"/>
<path id="Vector_6" d="M183.618 191.57L178.478 192.557L172.203 173.307L179.789 171.85L183.618 191.57Z" fill="#FFB6B6"/>
<path id="Vector_7" d="M185.893 196.274L169.32 199.457L169.279 199.249C168.949 197.547 169.312 195.784 170.288 194.349C171.264 192.913 172.773 191.922 174.484 191.593L174.485 191.593L184.607 189.648L185.893 196.274Z" fill="#2F2E41"/>
<path id="Vector_8" d="M135.238 24.911L138.28 30.7156L161.06 25.7178L158.565 14.4636C156.589 5.55548 148.67 -0.877959 139.715 1.0868C130.759 3.05155 126.58 11.7584 128.556 20.6665L132.227 32.0436L135.941 31.2287L135.238 24.911Z" fill="#2F2E41"/>
<path id="Vector_9" d="M127.112 88.9352C127.112 88.9352 124.869 100.088 127.86 116.446C130.85 132.804 131.597 139.867 131.597 139.867C131.597 139.867 129.355 142.469 130.85 143.957C132.345 145.444 130.85 148.418 130.85 148.418L134.213 184.479L145.8 182.62L144.305 148.789C144.305 148.789 145.8 145.815 145.052 145.072C144.305 144.328 145.8 139.867 145.8 139.867L147.668 104.549L159.255 143.213C159.255 143.213 158.134 144.7 159.255 145.815C160.376 146.931 162.619 152.507 162.619 152.507L170.094 178.531L182.054 176.3L175.326 146.559C175.326 146.559 176.074 144.7 174.953 143.585C174.625 143.244 174.387 142.828 174.256 142.375C174.126 141.922 174.109 141.444 174.205 140.982C174.205 140.982 175.326 139.867 173.831 138.38C172.336 136.893 171.589 130.945 171.589 130.945C171.589 130.945 170.467 91.1658 166.73 88.9352C162.992 86.7046 127.112 88.9352 127.112 88.9352Z" fill="#2F2E41"/>
<path id="Vector_10" d="M144.012 27.4224C149.792 27.4224 154.477 22.7619 154.477 17.0129C154.477 11.264 149.792 6.60352 144.012 6.60352C138.232 6.60352 133.547 11.264 133.547 17.0129C133.547 22.7619 138.232 27.4224 144.012 27.4224Z" fill="#FFB6B6"/>
<path id="Vector_11" d="M158.76 30.3378C158.76 30.3378 166.356 29.4528 168.599 31.6834L166.356 76.667C166.356 76.667 167.851 77.7823 167.104 80.3846C166.67 82.0927 166.67 83.8813 167.104 85.5893C167.104 85.5893 169.346 88.1917 168.225 89.307C167.104 90.4223 126.738 89.6788 126.738 89.6788C126.738 89.6788 125.243 87.0764 127.486 85.5893C129.728 84.1023 128.607 80.0129 128.607 80.0129C128.607 80.0129 127.859 78.8976 129.728 77.0387C131.597 75.1799 133.092 59.9375 133.092 59.9375L128.233 41.3493C128.233 41.3493 133.124 35.8581 138.714 35.4437L158.76 30.3378Z" fill="#E6E6E6"/>
<path id="Vector_12" d="M134.028 41.6049L128.237 41.3491C128.237 41.3491 124.874 48.0409 124.5 53.9891L122.441 76.1791L135.712 78.1539L134.028 41.6049Z" fill="#E6E6E6"/>
<path id="Vector_13" d="M135.047 17.5291L131.16 12.5542C130.931 11.5068 131.127 10.4117 131.707 9.50823C132.287 8.60477 133.203 7.96643 134.255 7.73272L148.941 4.51081C149.994 4.2828 151.095 4.47866 152.003 5.0556C152.912 5.63255 153.553 6.54367 153.789 7.58986L153.797 7.6258L152.745 13.6332L152.56 13.6004C143.446 11.9841 140.85 12.5526 135.196 17.4019L135.047 17.5291Z" fill="#2F2E41"/>
<path id="Vector_14" d="M174.16 97.0175L173.46 67.7446L172.712 46.9258L163.742 48.0411L168.559 97.8003C168.047 98.4403 167.739 99.2184 167.676 100.034C167.613 100.85 167.797 101.666 168.205 102.376C168.613 103.087 169.226 103.659 169.964 104.02C170.703 104.38 171.533 104.512 172.347 104.398C173.162 104.284 173.923 103.93 174.533 103.381C175.143 102.832 175.574 102.114 175.769 101.319C175.964 100.524 175.915 99.6896 175.629 98.9227C175.342 98.1559 174.83 97.4922 174.16 97.0175Z" fill="#FFB6B6"/>
<path id="Vector_15" d="M162.055 32.3107L168.598 31.6831C168.598 31.6831 169.719 31.6831 170.841 35.4008C171.962 39.1184 178.126 78.4096 178.126 78.4096L164.487 79.6408L162.055 32.3107Z" fill="#E6E6E6"/>
<path id="Vector_16" d="M121.404 78.7596H120.53V54.9291C120.53 53.1179 120.171 51.3244 119.474 49.651C118.777 47.9776 117.756 46.4572 116.468 45.1764C115.181 43.8957 113.652 42.8797 111.97 42.1866C110.287 41.4935 108.484 41.1367 106.663 41.1367H55.9053C54.0844 41.1367 52.2812 41.4935 50.5989 42.1866C48.9166 42.8797 47.388 43.8957 46.1004 45.1764C44.8128 46.4571 43.7914 47.9776 43.0946 49.651C42.3977 51.3243 42.0391 53.1179 42.0391 54.9291V185.665C42.0391 189.323 43.5 192.831 46.1004 195.418C48.7008 198.004 52.2277 199.457 55.9053 199.457H106.663C110.341 199.457 113.868 198.004 116.468 195.418C119.069 192.831 120.53 189.323 120.53 185.665V95.7225H121.404V78.7596Z" fill="#3F3D56"/>
<path id="Vector_17" d="M107.225 44.7251H100.599C100.904 45.4681 101.02 46.2743 100.938 47.0726C100.856 47.8709 100.577 48.6368 100.127 49.3028C99.6772 49.9688 99.0694 50.5146 98.3574 50.8919C97.6454 51.2693 96.8511 51.4667 96.0443 51.4668H66.9656C66.1589 51.4667 65.3645 51.2693 64.6525 50.8919C63.9405 50.5146 63.3327 49.9688 62.8827 49.3028C62.4327 48.6368 62.1543 47.8709 62.072 47.0726C61.9897 46.2743 62.106 45.4681 62.4107 44.7251H56.2223C53.476 44.7251 50.8421 45.8103 48.9001 47.7419C46.9582 49.6735 45.8672 52.2934 45.8672 55.0251V185.569C45.8672 186.922 46.135 188.261 46.6554 189.511C47.1758 190.76 47.9386 191.896 48.9001 192.852C49.8617 193.809 51.0032 194.567 52.2596 195.085C53.5159 195.603 54.8625 195.869 56.2223 195.869H107.225C108.585 195.869 109.931 195.603 111.188 195.085C112.444 194.567 113.586 193.809 114.547 192.852C115.509 191.896 116.271 190.76 116.792 189.511C117.312 188.261 117.58 186.922 117.58 185.569V55.0251C117.58 53.6725 117.312 52.3331 116.792 51.0835C116.271 49.8338 115.509 48.6984 114.547 47.7419C113.586 46.7855 112.444 46.0268 111.188 45.5092C109.931 44.9915 108.585 44.7251 107.225 44.7251Z" fill="white"/>
<path id="Vector_18" d="M73.5351 92.1678L74.9454 97.0271L92.9676 96.7108L92.8097 87.8074C92.6847 80.76 87.6774 74.6817 80.5925 74.8061C73.5075 74.9304 69.0025 80.8883 69.1275 87.9357L70.1568 97.1111L73.0952 97.0595L73.5351 92.1678Z" fill="#2F2E41"/>
<path id="Vector_19" d="M81.3986 95.5657C85.8644 95.5657 89.4847 91.9646 89.4847 87.5226C89.4847 83.0805 85.8644 79.4795 81.3986 79.4795C76.9328 79.4795 73.3125 83.0805 73.3125 87.5226C73.3125 91.9646 76.9328 95.5657 81.3986 95.5657Z" fill="#FFB6B6"/>
<path id="Vector_20" d="M97.4913 100.065L97.3081 103.448C93.4272 107.464 88.1334 109.827 82.5381 110.043C76.9427 110.258 71.4809 108.309 67.2995 104.605C67.1126 104.441 66.9294 104.27 66.75 104.095C67.8713 102.988 70.966 100.251 74.4008 99.9985L89.8892 99.0282C89.8892 99.0282 95.757 98.3442 97.4913 100.065Z" fill="#E4E4E4"/>
<path id="Vector_21" d="M90.2511 81.8748C90.2403 81.259 90.0465 80.66 89.6941 80.1536C89.6569 80.1015 89.6194 80.0532 89.582 80.0049C89.2824 79.6245 88.8985 79.3182 88.4602 79.1099C88.0219 78.9016 87.5411 78.7969 87.0554 78.804L81.2436 78.9081L75.4354 79.0085C74.6034 79.0251 73.8117 79.3688 73.2339 79.9645C72.656 80.5603 72.3389 81.3594 72.352 82.1871L73.7349 84.9568L74.531 86.5479L74.6618 86.4736C79.6887 83.663 81.7443 83.6258 88.3973 86.2394L88.5318 86.2914L89.0588 84.9493L90.2547 81.9046L90.2511 81.8748Z" fill="#2F2E41"/>
<path id="Vector_22" d="M98.8025 101.742C97.1442 103.851 95.1094 105.638 92.7999 107.014L92.4375 100.552L97.4943 100.065C97.4943 100.065 98.0998 100.065 98.8025 101.742Z" fill="#E4E4E4"/>
<path id="Vector_23" d="M81.7001 110.423C76.2987 110.429 71.0841 108.456 67.0513 104.882C66.8607 104.716 66.6726 104.54 66.4884 104.361C64.3174 102.321 62.5902 99.8602 61.4137 97.13C60.2372 94.3999 59.6365 91.4587 59.6486 88.4884C59.6486 82.6711 61.9719 77.092 66.1074 72.9786C70.2428 68.8651 75.8517 66.5542 81.7001 66.5542C87.5485 66.5542 93.1574 68.8651 97.2929 72.9786C101.428 77.092 103.752 82.6711 103.752 88.4884C103.77 93.376 102.129 98.1266 99.0939 101.971C97.0328 104.604 94.3944 106.734 91.3801 108.198C88.3657 109.663 85.0549 110.424 81.7001 110.423ZM81.7001 67.2977C76.0519 67.3041 70.6369 69.5387 66.643 73.5113C62.6491 77.484 60.4025 82.8702 60.3961 88.4884C60.3846 91.3587 60.9653 94.201 62.1026 96.8391C63.2398 99.4772 64.9092 101.855 67.0075 103.826C67.1861 104 67.3644 104.166 67.5464 104.325C69.7257 106.247 72.2777 107.705 75.0451 108.609C77.8124 109.512 80.7365 109.842 83.6371 109.579C86.5377 109.315 89.3532 108.464 91.9103 107.076C94.4673 105.689 96.7116 103.796 98.5048 101.513C101.437 97.7994 103.022 93.21 103.004 88.4884C102.998 82.8702 100.751 77.484 96.7572 73.5113C92.7634 69.5387 87.3483 67.3041 81.7001 67.2977Z" fill="#3F3D56"/>
<path id="Vector_24" d="M101.524 140.832H62.6763C62.2889 140.832 61.9053 140.756 61.5475 140.609C61.1896 140.462 60.8644 140.245 60.5905 139.973C60.3166 139.701 60.0993 139.377 59.9511 139.021C59.8029 138.665 59.7266 138.284 59.7266 137.898C59.7266 137.513 59.8029 137.132 59.9511 136.776C60.0993 136.42 60.3166 136.096 60.5905 135.824C60.8644 135.551 61.1896 135.335 61.5475 135.188C61.9053 135.04 62.2889 134.964 62.6763 134.964H101.524C101.911 134.964 102.295 135.04 102.652 135.188C103.01 135.335 103.336 135.551 103.609 135.824C103.883 136.096 104.101 136.42 104.249 136.776C104.397 137.132 104.473 137.513 104.473 137.898C104.473 138.284 104.397 138.665 104.249 139.021C104.101 139.377 103.883 139.701 103.609 139.973C103.336 140.245 103.01 140.462 102.652 140.609C102.295 140.756 101.911 140.832 101.524 140.832Z" fill="#0A8080"/>
<path id="Vector_25" d="M101.524 150.126H62.6763C61.894 150.126 61.1437 149.817 60.5905 149.267C60.0373 148.717 59.7266 147.97 59.7266 147.192C59.7266 146.414 60.0373 145.668 60.5905 145.118C61.1437 144.567 61.894 144.258 62.6763 144.258H101.524C102.306 144.258 103.056 144.567 103.609 145.118C104.163 145.668 104.473 146.414 104.473 147.192C104.473 147.97 104.163 148.717 103.609 149.267C103.056 149.817 102.306 150.126 101.524 150.126Z" fill="#0A8080"/>
<path id="Vector_26" d="M92.0703 131.425H72.1372C71.3549 131.425 70.6046 131.116 70.0515 130.566C69.4983 130.016 69.1875 129.269 69.1875 128.491C69.1875 127.713 69.4983 126.967 70.0515 126.416C70.6046 125.866 71.3549 125.557 72.1372 125.557H92.0703C92.8526 125.557 93.6028 125.866 94.156 126.416C94.7092 126.967 95.02 127.713 95.02 128.491C95.02 129.269 94.7092 130.016 94.156 130.566C93.6028 131.116 92.8526 131.425 92.0703 131.425Z" fill="#0A8080"/>
<path id="Vector_27" d="M224.626 199.732H0.373754C0.274628 199.732 0.179568 199.693 0.109475 199.623C0.039383 199.553 0 199.459 0 199.36C0 199.261 0.039383 199.167 0.109475 199.097C0.179568 199.027 0.274628 198.988 0.373754 198.988H224.626C224.725 198.988 224.82 199.027 224.891 199.097C224.961 199.167 225 199.261 225 199.36C225 199.459 224.961 199.553 224.891 199.623C224.82 199.693 224.725 199.732 224.626 199.732Z" fill="#CACACA"/>
</g>
<defs>
<clipPath id="clip0_7515_93755">
<rect width="225" height="199" fill="white" transform="translate(0 0.731934)"/>
</clipPath>
</defs>
</svg>
