<svg width="101" height="24" viewBox="0 0 101 24" fill="none" xmlns="http://www.w3.org/2000/svg">
<path d="M3.0828 22.9702V17.3526H11.2351C12.7784 17.3526 14.0987 16.804 15.1959 15.7069C16.3004 14.6097 16.8526 13.2858 16.8526 11.7351H22.4702C22.4702 14.8364 21.3693 17.4843 19.1677 19.6786C16.9733 21.873 14.3291 22.9702 11.2351 22.9702H3.0828ZM0 11.7351C0 8.64104 1.09718 5.99685 3.29153 3.8025C5.48588 1.60083 8.13373 0.5 11.2351 0.5H22.4702V6.11754H11.2351C9.6844 6.11754 8.36048 6.66978 7.2633 7.77428C6.16613 8.87145 5.61754 10.1917 5.61754 11.7351H0Z" fill="black"/>
<ellipse cx="22.4644" cy="3.30876" rx="2.74027" ry="2.80876" fill="black"/>
<ellipse cx="3.03421" cy="20.1584" rx="2.74027" ry="2.80876" fill="black"/>
<ellipse cx="2.80877" cy="11.7344" rx="2.80877" ry="2.74026" fill="black"/>
<ellipse cx="19.6613" cy="11.7344" rx="2.80877" ry="2.74026" fill="black"/>
<mask id="path-7-inside-1_23516_85615" fill="white">
<path d="M45.5722 13.1752C47.1771 13.3927 48.3322 14.8996 47.7048 16.3926C47.1525 17.7068 46.3538 18.9168 45.3416 19.9558C43.6366 21.706 41.413 22.8816 38.9882 23.3148C36.5634 23.748 34.0615 23.4167 31.8395 22.3682C29.6176 21.3197 27.7893 19.6075 26.6158 17.4763C25.4422 15.345 24.9833 12.9035 25.3047 10.5005C25.626 8.09741 26.7112 5.85565 28.4052 4.09527C30.0992 2.33488 32.3154 1.14588 34.7374 0.698027C36.1938 0.428743 37.6797 0.435688 39.1176 0.709046C40.6968 1.00928 41.323 2.78615 40.6271 4.23521V4.23521C39.9437 5.65814 38.2041 6.18565 36.6272 6.2576C36.3568 6.26994 36.0864 6.3008 35.818 6.35042C34.6073 6.57429 33.4995 7.16864 32.6527 8.04862C31.8059 8.92859 31.2635 10.0492 31.1028 11.2504C30.9422 12.4516 31.1716 13.6721 31.7582 14.7374C32.3449 15.8028 33.2588 16.6587 34.3695 17.1828C35.4801 17.7069 36.7308 17.8726 37.9429 17.656C39.155 17.4394 40.2665 16.8518 41.1188 15.9769C41.2843 15.8071 41.4383 15.6281 41.5804 15.4411C42.554 14.1598 43.9776 12.9592 45.5722 13.1752V13.1752Z"/>
</mask>
<path d="M45.5722 13.1752C47.1771 13.3927 48.3322 14.8996 47.7048 16.3926C47.1525 17.7068 46.3538 18.9168 45.3416 19.9558C43.6366 21.706 41.413 22.8816 38.9882 23.3148C36.5634 23.748 34.0615 23.4167 31.8395 22.3682C29.6176 21.3197 27.7893 19.6075 26.6158 17.4763C25.4422 15.345 24.9833 12.9035 25.3047 10.5005C25.626 8.09741 26.7112 5.85565 28.4052 4.09527C30.0992 2.33488 32.3154 1.14588 34.7374 0.698027C36.1938 0.428743 37.6797 0.435688 39.1176 0.709046C40.6968 1.00928 41.323 2.78615 40.6271 4.23521V4.23521C39.9437 5.65814 38.2041 6.18565 36.6272 6.2576C36.3568 6.26994 36.0864 6.3008 35.818 6.35042C34.6073 6.57429 33.4995 7.16864 32.6527 8.04862C31.8059 8.92859 31.2635 10.0492 31.1028 11.2504C30.9422 12.4516 31.1716 13.6721 31.7582 14.7374C32.3449 15.8028 33.2588 16.6587 34.3695 17.1828C35.4801 17.7069 36.7308 17.8726 37.9429 17.656C39.155 17.4394 40.2665 16.8518 41.1188 15.9769C41.2843 15.8071 41.4383 15.6281 41.5804 15.4411C42.554 14.1598 43.9776 12.9592 45.5722 13.1752V13.1752Z" stroke="black" stroke-width="8" mask="url(#path-7-inside-1_23516_85615)"/>
<circle cx="45.2532" cy="7.56911" r="3.89919" fill="black"/>
<path d="M61.4083 18.598C60.755 18.598 60.167 18.486 59.6443 18.262C59.1217 18.0287 58.711 17.702 58.4123 17.282C58.1137 16.862 57.9643 16.372 57.9643 15.812H59.6723C59.7097 16.232 59.873 16.5773 60.1623 16.848C60.461 17.1187 60.8763 17.254 61.4083 17.254C61.959 17.254 62.3883 17.1233 62.6963 16.862C63.0043 16.5913 63.1583 16.246 63.1583 15.826C63.1583 15.4993 63.0603 15.2333 62.8643 15.028C62.6777 14.8227 62.4397 14.664 62.1503 14.552C61.8703 14.44 61.4783 14.3187 60.9743 14.188C60.3397 14.02 59.8217 13.852 59.4203 13.684C59.0283 13.5067 58.6923 13.236 58.4123 12.872C58.1323 12.508 57.9923 12.0227 57.9923 11.416C57.9923 10.856 58.1323 10.366 58.4123 9.946C58.6923 9.526 59.0843 9.204 59.5883 8.98C60.0923 8.756 60.6757 8.644 61.3383 8.644C62.281 8.644 63.051 8.882 63.6483 9.358C64.255 9.82467 64.591 10.4687 64.6563 11.29H62.8923C62.8643 10.9353 62.6963 10.632 62.3883 10.38C62.0803 10.128 61.6743 10.002 61.1703 10.002C60.713 10.002 60.3397 10.1187 60.0503 10.352C59.761 10.5853 59.6163 10.9213 59.6163 11.36C59.6163 11.6587 59.705 11.906 59.8823 12.102C60.069 12.2887 60.3023 12.438 60.5823 12.55C60.8623 12.662 61.245 12.7833 61.7303 12.914C62.3743 13.0913 62.897 13.2687 63.2983 13.446C63.709 13.6233 64.0543 13.8987 64.3343 14.272C64.6237 14.636 64.7683 15.126 64.7683 15.742C64.7683 16.2367 64.633 16.7033 64.3623 17.142C64.101 17.5807 63.7137 17.9353 63.2003 18.206C62.6963 18.4673 62.099 18.598 61.4083 18.598ZM69.9976 18.626C69.2696 18.626 68.6116 18.4627 68.0236 18.136C67.4356 17.8 66.9736 17.3333 66.6376 16.736C66.3016 16.1293 66.1336 15.4293 66.1336 14.636C66.1336 13.852 66.3062 13.1567 66.6516 12.55C66.9969 11.9433 67.4682 11.4767 68.0656 11.15C68.6629 10.8233 69.3302 10.66 70.0676 10.66C70.8049 10.66 71.4722 10.8233 72.0696 11.15C72.6669 11.4767 73.1382 11.9433 73.4836 12.55C73.8289 13.1567 74.0016 13.852 74.0016 14.636C74.0016 15.42 73.8242 16.1153 73.4696 16.722C73.1149 17.3287 72.6296 17.8 72.0136 18.136C71.4069 18.4627 70.7349 18.626 69.9976 18.626ZM69.9976 17.24C70.4082 17.24 70.7909 17.142 71.1456 16.946C71.5096 16.75 71.8036 16.456 72.0276 16.064C72.2516 15.672 72.3636 15.196 72.3636 14.636C72.3636 14.076 72.2562 13.6047 72.0416 13.222C71.8269 12.83 71.5422 12.536 71.1876 12.34C70.8329 12.144 70.4502 12.046 70.0396 12.046C69.6289 12.046 69.2462 12.144 68.8916 12.34C68.5462 12.536 68.2709 12.83 68.0656 13.222C67.8602 13.6047 67.7576 14.076 67.7576 14.636C67.7576 15.4667 67.9676 16.1107 68.3876 16.568C68.8169 17.016 69.3536 17.24 69.9976 17.24ZM75.0473 14.636C75.0473 13.8427 75.206 13.1473 75.5233 12.55C75.85 11.9433 76.298 11.4767 76.8673 11.15C77.4366 10.8233 78.09 10.66 78.8273 10.66C79.7606 10.66 80.5306 10.884 81.1373 11.332C81.7533 11.7707 82.1686 12.4007 82.3833 13.222H80.6613C80.5213 12.8393 80.2973 12.5407 79.9893 12.326C79.6813 12.1113 79.294 12.004 78.8273 12.004C78.174 12.004 77.6513 12.2373 77.2593 12.704C76.8766 13.1613 76.6853 13.8053 76.6853 14.636C76.6853 15.4667 76.8766 16.1153 77.2593 16.582C77.6513 17.0487 78.174 17.282 78.8273 17.282C79.7513 17.282 80.3626 16.876 80.6613 16.064H82.3833C82.1593 16.848 81.7393 17.4733 81.1233 17.94C80.5073 18.3973 79.742 18.626 78.8273 18.626C78.09 18.626 77.4366 18.4627 76.8673 18.136C76.298 17.8 75.85 17.3333 75.5233 16.736C75.206 16.1293 75.0473 15.4293 75.0473 14.636ZM84.7858 9.764C84.4965 9.764 84.2538 9.666 84.0578 9.47C83.8618 9.274 83.7638 9.03133 83.7638 8.742C83.7638 8.45267 83.8618 8.21 84.0578 8.014C84.2538 7.818 84.4965 7.72 84.7858 7.72C85.0658 7.72 85.3038 7.818 85.4998 8.014C85.6958 8.21 85.7938 8.45267 85.7938 8.742C85.7938 9.03133 85.6958 9.274 85.4998 9.47C85.3038 9.666 85.0658 9.764 84.7858 9.764ZM85.5698 10.786V18.5H83.9738V10.786H85.5698ZM87.1332 14.608C87.1332 13.8333 87.2919 13.1473 87.6092 12.55C87.9359 11.9527 88.3746 11.4907 88.9252 11.164C89.4852 10.828 90.1012 10.66 90.7732 10.66C91.3799 10.66 91.9072 10.7813 92.3552 11.024C92.8126 11.2573 93.1766 11.5513 93.4472 11.906V10.786H95.0572V18.5H93.4472V17.352C93.1766 17.716 92.8079 18.0193 92.3412 18.262C91.8746 18.5047 91.3426 18.626 90.7452 18.626C90.0826 18.626 89.4759 18.458 88.9252 18.122C88.3746 17.7767 87.9359 17.3007 87.6092 16.694C87.2919 16.078 87.1332 15.3827 87.1332 14.608ZM93.4472 14.636C93.4472 14.104 93.3352 13.642 93.1112 13.25C92.8966 12.858 92.6119 12.5593 92.2572 12.354C91.9026 12.1487 91.5199 12.046 91.1092 12.046C90.6986 12.046 90.3159 12.1487 89.9612 12.354C89.6066 12.55 89.3172 12.844 89.0932 13.236C88.8786 13.6187 88.7712 14.076 88.7712 14.608C88.7712 15.14 88.8786 15.6067 89.0932 16.008C89.3172 16.4093 89.6066 16.7173 89.9612 16.932C90.3252 17.1373 90.7079 17.24 91.1092 17.24C91.5199 17.24 91.9026 17.1373 92.2572 16.932C92.6119 16.7267 92.8966 16.428 93.1112 16.036C93.3352 15.6347 93.4472 15.168 93.4472 14.636ZM98.7495 8.14V18.5H97.1535V8.14H98.7495Z" fill="black"/>
</svg>
