<svg width="217" height="156" viewBox="0 0 217 156" fill="none" xmlns="http://www.w3.org/2000/svg">
<g clip-path="url(#clip0_6126_126387)">
<path d="M211.934 155.824H81.7368C80.3939 155.823 79.1065 155.288 78.157 154.339C77.2075 153.389 76.6734 152.102 76.6719 150.759V5.06503C76.6734 3.72216 77.2075 2.43473 78.157 1.48518C79.1065 0.535632 80.3939 0.00151172 81.7368 0H211.934C213.277 0.00151172 214.565 0.535632 215.514 1.48518C216.464 2.43473 216.998 3.72216 216.999 5.06503V150.759C216.998 152.102 216.464 153.389 215.514 154.339C214.565 155.288 213.277 155.823 211.934 155.824ZM81.7368 0.595885C80.5519 0.597226 79.416 1.06851 78.5782 1.90635C77.7404 2.74418 77.2691 3.88015 77.2677 5.06503V150.759C77.2691 151.944 77.7404 153.08 78.5782 153.918C79.416 154.756 80.5519 155.227 81.7368 155.228H211.934C213.119 155.227 214.255 154.756 215.093 153.918C215.931 153.08 216.402 151.944 216.403 150.759V5.06503C216.402 3.88015 215.931 2.74418 215.093 1.90635C214.255 1.06851 213.119 0.597226 211.934 0.595885H81.7368Z" fill="#3F3D56"/>
<path d="M216.702 12.3916H76.9707V12.9875H216.702V12.3916Z" fill="#3F3D56"/>
<path d="M83.8229 8.93798C85.1393 8.93798 86.2064 7.87083 86.2064 6.55444C86.2064 5.23805 85.1393 4.1709 83.8229 4.1709C82.5066 4.1709 81.4395 5.23805 81.4395 6.55444C81.4395 7.87083 82.5066 8.93798 83.8229 8.93798Z" fill="#0A8080"/>
<path d="M91.2722 8.93798C92.5885 8.93798 93.6556 7.87083 93.6556 6.55444C93.6556 5.23805 92.5885 4.1709 91.2722 4.1709C89.9558 4.1709 88.8887 5.23805 88.8887 6.55444C88.8887 7.87083 89.9558 8.93798 91.2722 8.93798Z" fill="#0A8080"/>
<path d="M98.7194 8.93798C100.036 8.93798 101.103 7.87083 101.103 6.55444C101.103 5.23805 100.036 4.1709 98.7194 4.1709C97.4031 4.1709 96.3359 5.23805 96.3359 6.55444C96.3359 7.87083 97.4031 8.93798 98.7194 8.93798Z" fill="#0A8080"/>
<path d="M193.313 34.2636H100.358C99.3303 34.2636 98.3452 33.8555 97.6188 33.1291C96.8924 32.4028 96.4844 31.4176 96.4844 30.3903C96.4844 29.3631 96.8924 28.3779 97.6188 27.6515C98.3452 26.9252 99.3303 26.5171 100.358 26.5171H193.313C194.341 26.5171 195.326 26.9252 196.052 27.6515C196.778 28.3779 197.186 29.3631 197.186 30.3903C197.186 31.4176 196.778 32.4028 196.052 33.1291C195.326 33.8555 194.341 34.2636 193.313 34.2636ZM100.358 27.113C99.4883 27.113 98.6548 27.4583 98.0402 28.0729C97.4255 28.6875 97.0802 29.5211 97.0802 30.3903C97.0802 31.2596 97.4255 32.0932 98.0402 32.7078C98.6548 33.3224 99.4883 33.6677 100.358 33.6677H193.313C194.182 33.6677 195.016 33.3224 195.631 32.7078C196.245 32.0932 196.591 31.2596 196.591 30.3903C196.591 29.5211 196.245 28.6875 195.631 28.0729C195.016 27.4583 194.182 27.113 193.313 27.113H100.358Z" fill="#3F3D56"/>
<path d="M170.329 64.8296H128.022C127.39 64.8296 126.784 64.5785 126.337 64.1315C125.89 63.6845 125.639 63.0782 125.639 62.446C125.639 61.8139 125.89 61.2076 126.337 60.7606C126.784 60.3136 127.39 60.0625 128.022 60.0625H170.329C170.961 60.0625 171.567 60.3136 172.014 60.7606C172.461 61.2076 172.712 61.8139 172.712 62.446C172.712 63.0782 172.461 63.6845 172.014 64.1315C171.567 64.5785 170.961 64.8296 170.329 64.8296Z" fill="#CCCCCC"/>
<path d="M194.76 72.874H128.022C127.39 72.874 126.784 72.6229 126.337 72.1759C125.89 71.7289 125.639 71.1226 125.639 70.4905C125.639 69.8583 125.89 69.2521 126.337 68.8051C126.784 68.3581 127.39 68.1069 128.022 68.1069H194.76C195.392 68.1069 195.998 68.3581 196.445 68.8051C196.892 69.2521 197.143 69.8583 197.143 70.4905C197.143 71.1226 196.892 71.7289 196.445 72.1759C195.998 72.6229 195.392 72.874 194.76 72.874Z" fill="#CCCCCC"/>
<path d="M112.171 73.3211H99.3597C98.6093 73.3202 97.8899 73.0218 97.3592 72.4911C96.8286 71.9605 96.5301 71.2411 96.5293 70.4906V62.4462C96.5301 61.6958 96.8286 60.9763 97.3592 60.4457C97.8899 59.9151 98.6093 59.6166 99.3597 59.6157H112.171C112.921 59.6166 113.641 59.9151 114.171 60.4457C114.702 60.9763 115 61.6958 115.001 62.4462V70.4906C115 71.2411 114.702 71.9605 114.171 72.4911C113.641 73.0218 112.921 73.3202 112.171 73.3211ZM99.3597 60.2116C98.7673 60.2123 98.1993 60.4479 97.7804 60.8668C97.3615 61.2857 97.1258 61.8537 97.1252 62.4462V70.4906C97.1258 71.0831 97.3615 71.6511 97.7804 72.07C98.1993 72.4889 98.7673 72.7245 99.3597 72.7252H112.171C112.763 72.7245 113.331 72.4889 113.75 72.07C114.169 71.6511 114.405 71.0831 114.405 70.4906V62.4462C114.405 61.8537 114.169 61.2857 113.75 60.8668C113.331 60.4479 112.763 60.2123 112.171 60.2116H99.3597Z" fill="#CCCCCC"/>
<path d="M170.329 93.1343H128.022C127.39 93.1343 126.784 92.8832 126.337 92.4361C125.89 91.9891 125.639 91.3829 125.639 90.7507C125.639 90.1186 125.89 89.5123 126.337 89.0653C126.784 88.6183 127.39 88.3672 128.022 88.3672H170.329C170.961 88.3672 171.567 88.6183 172.014 89.0653C172.461 89.5123 172.712 90.1186 172.712 90.7507C172.712 91.3829 172.461 91.9891 172.014 92.4361C171.567 92.8832 170.961 93.1343 170.329 93.1343Z" fill="#CCCCCC"/>
<path d="M194.76 101.179H128.022C127.39 101.179 126.784 100.928 126.337 100.481C125.89 100.034 125.639 99.4273 125.639 98.7952C125.639 98.163 125.89 97.5567 126.337 97.1097C126.784 96.6627 127.39 96.4116 128.022 96.4116H194.76C195.392 96.4116 195.998 96.6627 196.445 97.1097C196.892 97.5567 197.143 98.163 197.143 98.7952C197.143 99.4273 196.892 100.034 196.445 100.481C195.998 100.928 195.392 101.179 194.76 101.179Z" fill="#CCCCCC"/>
<path d="M112.171 101.625H99.3597C98.6093 101.624 97.8899 101.326 97.3592 100.795C96.8286 100.265 96.5301 99.5453 96.5293 98.7948V90.7504C96.5301 90 96.8286 89.2805 97.3592 88.7499C97.8899 88.2193 98.6093 87.9208 99.3597 87.9199H112.171C112.921 87.9208 113.641 88.2193 114.171 88.7499C114.702 89.2805 115 90 115.001 90.7504V98.7948C115 99.5453 114.702 100.265 114.171 100.795C113.641 101.326 112.921 101.624 112.171 101.625ZM99.3597 88.5158C98.7673 88.5165 98.1993 88.7521 97.7804 89.171C97.3615 89.5899 97.1258 90.1579 97.1252 90.7504V98.7948C97.1258 99.3873 97.3615 99.9553 97.7804 100.374C98.1993 100.793 98.7673 101.029 99.3597 101.029H112.171C112.763 101.029 113.331 100.793 113.75 100.374C114.169 99.9553 114.405 99.3873 114.405 98.7948V90.7504C114.405 90.1579 114.169 89.5899 113.75 89.171C113.331 88.7521 112.763 88.5165 112.171 88.5158H99.3597Z" fill="#CCCCCC"/>
<path d="M170.329 121.438H128.022C127.39 121.438 126.784 121.187 126.337 120.74C125.89 120.293 125.639 119.687 125.639 119.055C125.639 118.423 125.89 117.817 126.337 117.37C126.784 116.923 127.39 116.671 128.022 116.671H170.329C170.961 116.671 171.567 116.923 172.014 117.37C172.461 117.817 172.712 118.423 172.712 119.055C172.712 119.687 172.461 120.293 172.014 120.74C171.567 121.187 170.961 121.438 170.329 121.438Z" fill="#F2F2F2"/>
<path d="M194.76 129.483H128.022C127.39 129.483 126.784 129.232 126.337 128.785C125.89 128.338 125.639 127.732 125.639 127.099C125.639 126.467 125.89 125.861 126.337 125.414C126.784 124.967 127.39 124.716 128.022 124.716H194.76C195.392 124.716 195.998 124.967 196.445 125.414C196.892 125.861 197.143 126.467 197.143 127.099C197.143 127.732 196.892 128.338 196.445 128.785C195.998 129.232 195.392 129.483 194.76 129.483Z" fill="#F2F2F2"/>
<path d="M112.171 129.93H99.3597C98.6093 129.929 97.8899 129.631 97.3592 129.1C96.8286 128.569 96.5301 127.85 96.5293 127.1V119.055C96.5301 118.305 96.8286 117.585 97.3592 117.055C97.8899 116.524 98.6093 116.225 99.3597 116.225H112.171C112.921 116.225 113.641 116.524 114.171 117.055C114.702 117.585 115 118.305 115.001 119.055V127.1C115 127.85 114.702 128.569 114.171 129.1C113.641 129.631 112.921 129.929 112.171 129.93Z" fill="#F2F2F2"/>
<path d="M105.765 70.8592L105.075 70.2369C102.626 67.9876 101.008 66.5277 101.008 64.7091C101.002 64.3631 101.066 64.0194 101.195 63.6984C101.324 63.3773 101.516 63.0854 101.76 62.84C102.004 62.5945 102.295 62.4005 102.615 62.2694C102.935 62.1384 103.279 62.0729 103.625 62.0768C104.033 62.079 104.436 62.17 104.806 62.3436C105.175 62.5172 105.503 62.7691 105.765 63.0819C106.028 62.7691 106.355 62.5172 106.725 62.3436C107.094 62.17 107.497 62.079 107.906 62.0768C108.252 62.0729 108.595 62.1384 108.915 62.2694C109.236 62.4005 109.526 62.5945 109.77 62.84C110.014 63.0854 110.207 63.3773 110.336 63.6984C110.465 64.0194 110.528 64.3631 110.522 64.7091C110.522 66.5277 108.905 67.9876 106.455 70.2369L105.765 70.8592Z" fill="#0A8080"/>
<path d="M105.765 99.1639L105.075 98.5416C102.626 96.2923 101.008 94.8324 101.008 93.0138C101.002 92.6678 101.066 92.3241 101.195 92.003C101.324 91.682 101.516 91.3901 101.76 91.1447C102.004 90.8992 102.295 90.7052 102.615 90.5741C102.935 90.443 103.279 90.3775 103.625 90.3815C104.033 90.3837 104.436 90.4747 104.806 90.6483C105.175 90.8219 105.503 91.0738 105.765 91.3866C106.028 91.0738 106.355 90.8218 106.725 90.6483C107.094 90.4747 107.497 90.3837 107.906 90.3815C108.252 90.3775 108.595 90.443 108.915 90.5741C109.236 90.7052 109.526 90.8992 109.77 91.1447C110.014 91.3901 110.207 91.682 110.336 92.003C110.465 92.3241 110.528 92.6678 110.522 93.0138C110.522 94.8324 108.905 96.2923 106.455 98.5416L105.765 99.1639Z" fill="#0A8080"/>
<path d="M51.6416 94.4026H38.8304C38.08 94.4018 37.3606 94.1033 36.8299 93.5727C36.2993 93.042 36.0009 92.3226 36 91.5722V83.5277C36.0009 82.7773 36.2993 82.0579 36.8299 81.5272C37.3606 80.9966 38.08 80.6981 38.8304 80.6973H51.6416C52.392 80.6981 53.1114 80.9966 53.642 81.5272C54.1727 82.0579 54.4711 82.7773 54.472 83.5277V91.5722C54.4711 92.3226 54.1727 93.042 53.642 93.5727C53.1114 94.1033 52.392 94.4018 51.6416 94.4026ZM38.8304 81.2932C38.238 81.2938 37.67 81.5295 37.2511 81.9484C36.8322 82.3673 36.5965 82.9353 36.5959 83.5277V91.5722C36.5965 92.1646 36.8322 92.7326 37.2511 93.1515C37.67 93.5705 38.238 93.8061 38.8304 93.8067H51.6416C52.234 93.8061 52.802 93.5705 53.2209 93.1515C53.6398 92.7326 53.8755 92.1646 53.8761 91.5722V83.5277C53.8755 82.9353 53.6398 82.3673 53.2209 81.9484C52.802 81.5295 52.234 81.2938 51.6416 81.2932H38.8304Z" fill="#3F3D56"/>
<path d="M45.2359 91.9407L44.5461 91.3184C42.0962 89.0691 40.4789 87.6093 40.4789 85.7907C40.4728 85.4447 40.5363 85.101 40.6654 84.7799C40.7945 84.4588 40.9868 84.1669 41.2307 83.9215C41.4747 83.6761 41.7654 83.4821 42.0857 83.351C42.4059 83.2199 42.7492 83.1544 43.0953 83.1584C43.5036 83.1605 43.9066 83.2516 44.2763 83.4251C44.6459 83.5987 44.9734 83.8506 45.2359 84.1635C45.4984 83.8506 45.8259 83.5987 46.1955 83.4251C46.5652 83.2516 46.9682 83.1605 47.3766 83.1584C47.7226 83.1544 48.0659 83.2199 48.3862 83.351C48.7064 83.4821 48.9972 83.6761 49.2411 83.9215C49.4851 84.1669 49.6773 84.4588 49.8064 84.7799C49.9356 85.101 49.999 85.4447 49.9929 85.7907C49.9929 87.6093 48.3756 89.0692 45.9258 91.3184L45.2359 91.9407Z" fill="#0A8080"/>
<path d="M37.8275 152.578L41.1412 151.79L39.6777 138.633L34.7871 139.797L37.8275 152.578Z" fill="#FFB8B8"/>
<path d="M48.2637 153.347L37.8495 155.824L36.8924 151.8L43.2829 150.28C43.8113 150.154 44.3593 150.134 44.8955 150.22C45.4318 150.306 45.9459 150.497 46.4084 150.782C46.8709 151.067 47.2728 151.44 47.5911 151.88C47.9095 152.32 48.138 152.818 48.2637 153.347Z" fill="#2F2E41"/>
<path d="M34.5756 144.107L27.3789 119.441L36.3721 117.21L41.6479 143.333C41.6866 143.524 41.683 143.722 41.6374 143.912C41.5918 144.101 41.5053 144.279 41.384 144.432C41.2626 144.585 41.1093 144.709 40.9348 144.797C40.7603 144.884 40.5688 144.933 40.3736 144.939L35.9025 145.071C35.889 145.072 35.8757 145.072 35.8623 145.072C35.5723 145.072 35.2901 144.978 35.0581 144.804C34.8262 144.63 34.6569 144.385 34.5756 144.107Z" fill="#2F2E41"/>
<path d="M17.3078 152.661L20.7138 152.661L22.3337 139.522L17.3066 139.523L17.3078 152.661Z" fill="#FFB8B8"/>
<path d="M27.2832 155.823L16.5785 155.824L16.5781 151.688L23.1469 151.688C24.2438 151.687 25.2959 152.123 26.0716 152.899C26.8473 153.674 27.2831 154.726 27.2832 155.823Z" fill="#2F2E41"/>
<path d="M16.7088 147.556C16.5836 147.435 16.4838 147.29 16.415 147.13C16.3462 146.97 16.31 146.798 16.3082 146.624L13.2051 122.018C13.2038 121.663 13.3431 121.322 13.5925 121.07C13.8419 120.817 14.1812 120.674 14.536 120.671L21.4625 120.621H21.4724C21.8241 120.622 22.1615 120.76 22.4121 121.007C22.6626 121.254 22.8065 121.589 22.8128 121.941L23.181 146.18C23.1865 146.534 23.0519 146.875 22.8066 147.13C22.5612 147.385 22.2251 147.532 21.8714 147.54L17.6667 147.94C17.6602 147.94 17.6537 147.94 17.6473 147.94C17.2961 147.941 16.9587 147.803 16.7088 147.556Z" fill="#2F2E41"/>
<path d="M18.1926 66.116C22.234 66.116 25.5102 62.8397 25.5102 58.7983C25.5102 54.7568 22.234 51.4805 18.1926 51.4805C14.1512 51.4805 10.875 54.7568 10.875 58.7983C10.875 62.8397 14.1512 66.116 18.1926 66.116Z" fill="#FFB8B8"/>
<path d="M8.55362 120.733C3.79249 117.013 3.84288 112.673 5.46748 106.876C5.92515 105.243 6.41911 103.588 6.94203 101.835C9.37169 93.6942 12.1255 84.4666 11.08 76.8475C10.7937 74.7608 11.5236 72.5658 13.0825 70.8255C14.6415 69.085 16.7398 68.1206 18.8492 68.175C20.9548 68.2312 23.0023 69.3076 24.4665 71.1284C25.9236 72.9404 26.6191 79.3117 26.8252 80.2248C27.7716 84.416 28.3428 86.9457 28.7525 90.9813C29.237 95.7523 35.0397 110.017 36.8887 112.409C37.3794 113.041 37.7308 113.769 37.9196 114.546C38.1084 115.323 38.1304 116.132 37.9842 116.918C37.8479 117.666 37.5524 118.376 37.1178 119C36.6831 119.624 36.1195 120.147 35.465 120.534C32.4642 122.368 29.1669 123.666 25.7207 124.369C24.2259 124.658 22.7067 124.805 21.1841 124.805C16.4597 124.805 11.9456 123.383 8.55362 120.733Z" fill="#0A8080"/>
<path d="M38.9829 93.1635C38.7934 92.8017 38.5269 92.4858 38.2021 92.2382C37.8773 91.9905 37.5022 91.8171 37.1032 91.7301C36.7041 91.6431 36.2908 91.6446 35.8925 91.7346C35.4941 91.8246 35.1203 92.0009 34.7974 92.251L29.2524 89.0869L26.5078 91.9877L34.4011 96.346C34.8572 96.8606 35.4862 97.19 36.169 97.2718C36.8517 97.3536 37.5408 97.1822 38.1055 96.7899C38.6703 96.3976 39.0716 95.8118 39.2333 95.1434C39.395 94.475 39.3059 93.7706 38.9829 93.1635Z" fill="#FFB8B8"/>
<path d="M30.5302 95.3084L20.5919 92.1861C19.2576 91.7638 18.0849 90.9424 17.232 89.8328C16.3791 88.7231 15.887 87.3786 15.8222 85.9805L15.3946 76.3238C15.3705 75.7806 15.4563 75.2381 15.6468 74.7288C15.8372 74.2195 16.1285 73.7538 16.503 73.3596C16.8776 72.9655 17.3278 72.6509 17.8267 72.4348C18.3257 72.2186 18.8631 72.1053 19.4068 72.1017C19.9506 72.098 20.4894 72.204 20.9913 72.4135C21.4931 72.6229 21.9475 72.9313 22.3273 73.3204C22.7071 73.7095 23.0046 74.1712 23.2019 74.6779C23.3992 75.1846 23.4923 75.7259 23.4756 76.2694L23.2022 85.154L33.7794 89.4678C33.9662 89.544 34.1333 89.6613 34.2684 89.8111C34.4036 89.9608 34.5032 90.1391 34.5598 90.3327C34.6164 90.5263 34.6287 90.7302 34.5956 90.9292C34.5625 91.1281 34.485 91.3171 34.3687 91.4819L32.0278 94.8019C31.8644 95.0346 31.6311 95.2091 31.3618 95.3002C31.0925 95.3912 30.8012 95.3941 30.5302 95.3084Z" fill="#2F2E41"/>
<path d="M6.39938 67.9045C6.73376 65.899 6.72147 63.8204 6.70954 61.8102C6.70634 61.2645 6.70306 60.7189 6.70641 60.1744C6.72197 57.6438 6.87902 54.9616 7.91357 52.4923C9.03956 49.805 11.1247 47.8645 13.4913 47.3015C16.1595 46.666 19.0546 48.0707 19.9263 50.3837C20.5025 50.0583 21.1437 49.8648 21.8037 49.8172C22.4638 49.7697 23.1261 49.8692 23.743 50.1087C24.3599 50.3481 24.916 50.7216 25.3711 51.202C25.8262 51.6824 26.1689 52.2579 26.3747 52.8868C26.5804 53.5158 26.6439 54.1826 26.5607 54.8391C26.4775 55.4956 26.2496 56.1255 25.8935 56.6832C25.5374 57.241 25.0619 57.7127 24.5013 58.0644C23.9407 58.4161 23.3091 58.639 22.652 58.717L22.5402 58.7269L21.6683 56.4609C21.6633 56.5006 21.6586 56.5407 21.6538 56.5812C21.5983 57.0511 21.5409 57.5368 21.153 57.8175C20.6687 58.1678 20.0656 59.3207 20.2418 60.4888C20.3517 61.0864 20.5154 61.6729 20.731 62.2411C20.9707 62.8648 21.1446 63.5118 21.2501 64.1716C21.3609 65.0174 21.1396 65.8732 20.6327 66.5592C20.4824 66.7594 20.293 66.9269 20.0759 67.0515C19.8588 67.1761 19.6186 67.2551 19.3699 67.2838L9.54167 68.3002L9.10226 65.0173L6.30664 68.4605L6.39938 67.9045Z" fill="#2F2E41"/>
<path d="M57.5015 156H0.297935C0.218918 156 0.143137 155.969 0.087263 155.913C0.0313893 155.857 0 155.781 0 155.702C0 155.623 0.0313893 155.547 0.087263 155.492C0.143137 155.436 0.218918 155.404 0.297935 155.404H57.5015C57.5805 155.404 57.6563 155.436 57.7122 155.492C57.768 155.547 57.7994 155.623 57.7994 155.702C57.7994 155.781 57.768 155.857 57.7122 155.913C57.6563 155.969 57.5805 156 57.5015 156Z" fill="#CCCCCC"/>
</g>
<defs>
<clipPath id="clip0_6126_126387">
<rect width="217" height="156" fill="white"/>
</clipPath>
</defs>
</svg>
