<svg xmlns="http://www.w3.org/2000/svg" width="119.485" height="89.526" viewBox="16.257 33.736 119.485 89.526"><g data-name="undraw_images_re_0kll"><path d="M130.583 116.851H40.649a5.166 5.166 0 0 1-5.16-5.16V63.69a5.166 5.166 0 0 1 5.16-5.16h89.934a5.166 5.166 0 0 1 5.16 5.16v48.002a5.166 5.166 0 0 1-5.16 5.16Z" fill="#fff" fill-rule="evenodd" data-name="Path 32807"/><path d="M130.583 116.851H40.649a5.166 5.166 0 0 1-5.16-5.16V63.69a5.166 5.166 0 0 1 5.16-5.16h89.934a5.166 5.166 0 0 1 5.16 5.16v48.002a5.166 5.166 0 0 1-5.16 5.16Zm-89.934-58.01a4.853 4.853 0 0 0-4.847 4.848v48.002a4.853 4.853 0 0 0 4.847 4.847h89.934a4.853 4.853 0 0 0 4.847-4.847V63.69a4.853 4.853 0 0 0-4.847-4.847H40.649Z" fill="#f2f2f2" fill-rule="evenodd" data-name="Path 32808"/><path d="M130.583 113.099H40.649c-.776-.001-1.406-.63-1.407-1.408V63.69c.001-.777.63-1.406 1.407-1.407h89.934c.777 0 1.406.63 1.407 1.407v48.002c0 .777-.63 1.407-1.407 1.408ZM40.649 62.595c-.604 0-1.094.49-1.094 1.094v48.002c0 .605.49 1.094 1.094 1.095h89.934c.604 0 1.094-.49 1.094-1.095V63.69c0-.604-.49-1.094-1.094-1.094H40.649Z" fill="#f2f2f2" fill-rule="evenodd" data-name="Path 32809"/><path d="M107.694 113.327 20.762 90.283a5.166 5.166 0 0 1-3.665-6.31l12.3-46.4a5.166 5.166 0 0 1 6.31-3.665l86.93 23.044a5.166 5.166 0 0 1 3.666 6.31l-12.3 46.4a5.166 5.166 0 0 1-6.31 3.665Z" fill="#f2f2f2" fill-rule="evenodd" data-name="Path 32810"/><path d="M107.694 113.327 20.762 90.283a5.166 5.166 0 0 1-3.665-6.31l12.3-46.4a5.166 5.166 0 0 1 6.31-3.665l86.93 23.044a5.166 5.166 0 0 1 3.666 6.31l-12.3 46.4a5.166 5.166 0 0 1-6.31 3.665ZM35.626 34.211a4.853 4.853 0 0 0-5.927 3.443l-12.3 46.4a4.853 4.853 0 0 0 3.444 5.927l86.93 23.044a4.853 4.853 0 0 0 5.928-3.443l12.3-46.4a4.853 4.853 0 0 0-3.444-5.927L35.627 34.21Z" fill="#e6e6e6" fill-rule="evenodd" data-name="Path 32811"/><path d="M108.655 109.7 21.724 86.656c-.75-.2-1.198-.97-1-1.72l12.3-46.4c.2-.751.97-1.198 1.72-1l86.932 23.044c.75.2 1.198.97 1 1.72l-12.3 46.4c-.2.75-.97 1.198-1.72 1Zm-73.99-71.862a1.096 1.096 0 0 0-1.339.778l-12.3 46.4a1.096 1.096 0 0 0 .778 1.338l86.931 23.044a1.096 1.096 0 0 0 1.339-.778l12.3-46.4a1.096 1.096 0 0 0-.778-1.338L34.665 37.838Z" fill="#fff" fill-rule="evenodd" data-name="Path 32812"/><path d="M111.35 123.262H21.418a5.166 5.166 0 0 1-5.16-5.16V70.1a5.166 5.166 0 0 1 5.16-5.16h89.934a5.166 5.166 0 0 1 5.16 5.16v48.002a5.166 5.166 0 0 1-5.16 5.16Z" fill="#fff" fill-rule="evenodd" data-name="Path 32813"/><path d="M86.917 119.197H28.84c-.073 0-.145-.002-.217-.006l27.468-15.47c.522-.3 1.696-.406 2.62-.236.254.04.5.12.727.237l18.434 10.38.884.498 8.16 4.597Z" fill="#e6e6e6" fill-rule="evenodd" data-name="Path 32814"/><path d="M105.24 119.196H55.007l9.734-4.597.7-.33 12.684-5.991c.832-.393 2.832-.417 3.81-.075.066.024.126.048.183.075l23.12 10.918Z" fill="#e6e6e6" fill-rule="evenodd" data-name="Path 32815"/><path d="M21.417 65.253A4.853 4.853 0 0 0 16.57 70.1v48.002a4.853 4.853 0 0 0 4.847 4.847h89.933a4.853 4.853 0 0 0 4.848-4.847V70.1a4.853 4.853 0 0 0-4.848-4.847H21.417Z" fill="#3f3d56" fill-rule="evenodd" data-name="Path 32816"/><path d="M111.35 119.51H21.418c-.777-.002-1.406-.631-1.407-1.408V70.1c0-.777.63-1.407 1.407-1.407h89.934c.776 0 1.406.63 1.407 1.407v48.002c-.001.777-.63 1.406-1.407 1.407ZM21.418 69.004c-.604.001-1.094.49-1.095 1.095v48.002c.001.604.49 1.094 1.095 1.095h89.934c.604-.001 1.093-.49 1.094-1.095V70.1c0-.604-.49-1.094-1.094-1.095H21.417Z" fill="#ccc" fill-rule="evenodd" data-name="Path 32817"/><path d="M81.633 67.7a9.68 9.68 0 1 1 0 .1z" fill="#ff6584" fill-rule="evenodd" data-name="Ellipse 733"/><path d="M83.1 87.595a12.259 15.345 0 1 1 0 .1z" fill="#f2f2f2" fill-rule="evenodd" data-name="Ellipse 734"/><path d="M95.392 84.61h.034l.606 34.756h-1.28l.64-34.757Z" fill="#ccc" fill-rule="evenodd" data-name="Path 32818"/><path d="M97.483 107.62a.303.303 0 0 1-.126.409l-1.759.926-.282-.537 1.758-.926a.303.303 0 0 1 .41.127Z" fill="#ccc" fill-rule="evenodd" data-name="Path 32819"/><path d="M47.855 87.595a12.259 15.345 0 1 1 0 .1z" fill="#f2f2f2" fill-rule="evenodd" data-name="Ellipse 735"/><path d="M62.239 108.194a.303.303 0 0 0-.41-.127l-1.227.646-.42-24.104h-.034l-.64 34.757h1.28l-.174-9.974 1.498-.789a.303.303 0 0 0 .127-.41Z" fill="#ccc" fill-rule="evenodd" data-name="Path 32820"/><path d="M77.694 52.333c8.579 0 15.552 16.164 15.552 26.903 0 10.738-6.955 19.443-15.534 19.443S62.18 89.974 62.18 79.236c0-10.739 6.936-26.903 15.515-26.903Z" fill="#1de9b6" fill-rule="evenodd" data-name="Path 32821"/><path d="M80.404 105.053a.384.384 0 0 0-.519-.16l-1.555.818-.533-30.542h-.042l-.81 44.04h1.62l-.22-12.637 1.898-1a.384.384 0 0 0 .161-.519Z" fill="#3f3d56" fill-rule="evenodd" data-name="Path 32822"/><path d="M111.663 122.95H21.73a5.166 5.166 0 0 1-5.16-5.16V69.786a5.166 5.166 0 0 1 5.16-5.16h89.933a5.166 5.166 0 0 1 5.16 5.16v48.002a5.166 5.166 0 0 1-5.16 5.16Z" fill="#fff" fill-rule="evenodd" data-name="Path 32823"/><path d="M87.23 118.884H29.152c-.073 0-.145-.002-.217-.006l27.467-15.47c.523-.3 1.697-.405 2.621-.235.254.039.5.118.727.236l18.434 10.381.883.497 8.161 4.597Z" fill="#e6e6e6" fill-rule="evenodd" data-name="Path 32824"/><path d="M105.552 118.884H55.32l9.734-4.597.7-.331 12.685-5.991c.831-.393 2.832-.417 3.81-.074.065.023.126.048.182.074l23.12 10.919Z" fill="#e6e6e6" fill-rule="evenodd" data-name="Path 32825"/><path d="M111.663 122.95H21.73a5.166 5.166 0 0 1-5.16-5.16V69.786a5.166 5.166 0 0 1 5.16-5.16h89.933a5.166 5.166 0 0 1 5.16 5.16v48.002a5.166 5.166 0 0 1-5.16 5.16ZM21.73 64.94a4.853 4.853 0 0 0-4.847 4.847v48.002a4.853 4.853 0 0 0 4.847 4.847h89.933a4.853 4.853 0 0 0 4.847-4.847V69.787a4.853 4.853 0 0 0-4.847-4.847H21.73Z" fill="#3f3d56" fill-rule="evenodd" data-name="Path 32826"/><path d="M111.663 119.196H21.73c-.777 0-1.406-.63-1.407-1.407V69.787c0-.777.63-1.406 1.407-1.407h89.933c.777 0 1.407.63 1.408 1.407v48.002c-.001.777-.63 1.407-1.408 1.407ZM21.73 68.692c-.604.001-1.094.49-1.095 1.095v48.002c0 .604.49 1.094 1.095 1.095h89.933c.604 0 1.094-.49 1.095-1.095V69.787c0-.604-.49-1.094-1.095-1.095H21.73Z" fill="#ccc" fill-rule="evenodd" data-name="Path 32827"/><path d="M81.946 67.387a9.68 9.68 0 1 1 0 .1z" fill="#ff6584" fill-rule="evenodd" data-name="Ellipse 736"/><path d="M83.412 87.282a12.259 15.345 0 1 1 0 .1z" fill="#f2f2f2" fill-rule="evenodd" data-name="Ellipse 737"/><path d="M95.705 84.297h.034l.606 34.756h-1.28l.64-34.756Z" fill="#ccc" fill-rule="evenodd" data-name="Path 32828"/><path d="M97.796 107.307a.303.303 0 0 1-.127.41l-1.758.925-.283-.537 1.759-.925a.303.303 0 0 1 .409.127Z" fill="#ccc" fill-rule="evenodd" data-name="Path 32829"/><path d="M48.168 87.282a12.259 15.345 0 1 1 0 .1z" fill="#f2f2f2" fill-rule="evenodd" data-name="Ellipse 738"/><path d="M62.552 107.881a.303.303 0 0 0-.41-.127l-1.227.646-.42-24.103h-.034l-.64 34.756h1.28l-.174-9.974 1.498-.788a.303.303 0 0 0 .127-.41Z" fill="#ccc" fill-rule="evenodd" data-name="Path 32830"/><path d="M78.007 52.02c8.579 0 15.551 16.165 15.551 26.903s-6.954 19.443-15.533 19.443c-8.58 0-15.534-8.705-15.534-19.443 0-10.738 6.937-26.903 15.516-26.903Z" fill="#1de9b6" fill-rule="evenodd" data-name="Path 32831"/><path d="M80.717 104.74a.384.384 0 0 0-.519-.16l-1.555.819-.533-30.542h-.042l-.811 44.04h1.622l-.22-12.638 1.897-1a.384.384 0 0 0 .161-.518Z" fill="#3f3d56" fill-rule="evenodd" data-name="Path 32832"/></g></svg>